<?xml version="1.0" encoding="iso-8859-1"?>
<!-- Generator: Adobe Illustrator 21.0.0, SVG Export Plug-In . SVG Version: 6.00 Build 0)  -->
<svg xmlns="http://www.w3.org/2000/svg" xmlns:xlink="http://www.w3.org/1999/xlink" version="1.1" id="Capa_1" x="0px" y="0px" viewBox="0 0 512 512" style="enable-background:new 0 0 512 512;" xml:space="preserve" width="512" height="512">
<g>
	<path style="fill:#FF3C63;" d="M256,22C120.69,22,11,131.69,11,267c0,118.515,84.152,217.371,195.962,240.087l0,0l50.877,4.89   c14.675-0.108,29.042-1.503,42.995-4.084l49.403-14.685C438.768,456.284,501,368.914,501,267C501,131.69,391.31,22,256,22z"/>
	<path style="fill:#FCD2AE;" d="M158.706,286.203l-4.081,8.865L98.08,263.282c1.426-6.077,2.229-13.787-2.295-15.361   c-4.33-1.506-7.492,1.124-9.429,3.708l-2.404-2.633c-6.719-7.359-18.132-7.879-25.491-1.159   c-7.359,6.719-7.879,18.132-1.159,25.491l13.236,14.497c1.367,1.641,3.034,3.077,5.007,4.186l78.45,44.099   c9.233,5.186,20.862,1.309,25.232-8.184l10.518-22.848C188.534,304.681,159.447,286.893,158.706,286.203z"/>
	<path style="fill:#F9BD91;" d="M158.707,286.203l-4.068,8.837c1.841,3.092,2.917,6.692,2.917,10.552   c0,11.425-9.261,20.686-20.686,20.686c-0.137,0-0.268-0.018-0.404-0.02l17.529,9.854c9.233,5.186,20.862,1.309,25.232-8.184   l10.518-22.847C188.534,304.681,159.447,286.893,158.707,286.203z"/>
	<path style="fill:#FCD2AE;" d="M347.813,112.792l-30.33-84.73c-0.021-0.059-0.05-0.114-0.072-0.172   c-0.029-0.077-0.065-0.152-0.095-0.229c-0.757-1.966-1.823-3.721-3.123-5.239L302.122,6.946   c-6.129-7.857-17.468-9.259-25.325-3.129c-7.858,6.129-9.259,17.467-3.129,25.325l1.88,2.411c-3.845,2.052-7.339,4.991-6.137,8.599   c1.981,5.949,10.663,6.761,16.437,6.611l25.506,71.256l-4.257,9.248c0.135,0.039,32.696,11.628,33.96,12.528l6.158-13.378   C349.104,122.324,349.422,117.287,347.813,112.792z"/>
	<path style="fill:#F9BD91;" d="M347.814,112.792l-7.1-19.835c-2.413,8.748-10.407,15.182-19.923,15.182   c-6.166,0-11.687-2.713-15.476-6.993l6.04,16.874l-4.257,9.248c0.135,0.039,32.696,11.628,33.96,12.528l6.159-13.378   C349.105,122.324,349.422,117.287,347.814,112.792z"/>
	<path style="fill:#F9BD91;" d="M256.289,175.212c-0.178,0.229-0.356,0.457-0.534,0.678c-3.7,4.592-8.842,7.826-14.602,9.188   c-4.906,1.16-10.016,0.891-14.739-0.722c0.93,6.209-0.384,11.184-2.793,15.133c0.26,0.236,0.497,0.502,0.68,0.82   c2.552,4.444,8.738,12.151,21.502,13.854c4.203,0.561,8.286-0.494,11.486-2.97c4.574-3.537,9.924-10.221,9.615-21.986   C260.877,186.804,257.819,181.042,256.289,175.212z"/>
	<path style="fill:#EAA77A;" d="M246.712,185.313l-0.704-1.91c-1.555,0.704-3.174,1.278-4.855,1.676   c-4.906,1.16-10.016,0.891-14.739-0.722c0.93,6.209-0.384,11.184-2.793,15.133c0.26,0.236,0.497,0.502,0.68,0.82   c2.552,4.444,8.738,12.151,21.502,13.854c1.557,0.208,3.098,0.191,4.583-0.035C250.426,193.573,246.712,185.313,246.712,185.313z"/>
	<polygon style="fill:#474979;" points="189.111,130.713 189.111,130.713 189.111,130.713  "/>
	<path style="fill:#474979;" d="M204.431,64.328c-22.725,8.751-21.809,22.592-20.664,27.479c0.24,1.025-0.103,2.108-0.918,2.774   c-10.809,8.83,2.547,35.909,2.547,35.909c1.246-0.208,2.647-0.015,3.715,0.222c-0.111-1.515-0.067-3.042,0.145-4.558   c0.162-1.156,0.424-2.346,0.829-3.508c0.703-2.016,0.723-4.204,0.082-6.235c-1.852-5.87-4.424-17.692,2.623-23.105   c5.97-4.585,14.576-4.783,20.213-4.28c3.661,0.326,7.337-0.543,10.464-2.474c4.815-2.974,12.599-6.652,19.99-5.226   c8.7,1.679,11.148,13.47,12.13,19.563c0.341,2.118,1.33,4.09,2.873,5.59c0.911,0.885,2.386,2.29,3.063,3.283   c0.841,1.234,1.542,2.548,2.107,3.918c1.069-0.87,2.512-2.47,4.037-2.61c-1.3-6.304-2.318-13.191-2.318-13.191   C264.25,62.151,228.899,54.905,204.431,64.328z"/>
	<path style="fill:#3B3F6D;" d="M199.874,74.925c0-4.101,1.658-7.814,4.338-10.509c-22.493,8.756-21.586,22.52-20.445,27.391   c0.24,1.025-0.103,2.108-0.918,2.774c-10.809,8.83,2.547,35.909,2.547,35.909c1.246-0.208,2.647-0.015,3.714,0.222   c-0.11-1.515-0.067-3.042,0.145-4.558c0.162-1.156,0.424-2.346,0.829-3.508c0.703-2.016,0.723-4.204,0.082-6.235   c-1.852-5.87-4.424-17.692,2.623-23.105c4.827-3.708,11.378-4.545,16.688-4.465C203.867,86.702,199.874,81.287,199.874,74.925z"/>
	<path style="fill:#F9BD91;" d="M270.463,111.266c-2.257-1.236-5.763,0.49-7.123,1.895c0.859,2.066,1.399,4.259,1.609,6.502   l1.31,13.985c0.258,1.091,0.476,2.17,0.661,3.237c4.935,0.277,6.263-4.334,5.989-7.217c-0.118-1.241-0.127-2.49-0.023-3.736   C273.222,121.877,276.118,114.363,270.463,111.266z"/>
	<path style="fill:#EAA77A;" d="M272.886,125.932c0.116-1.395,0.531-3.201,0.8-5.094c-1.153,2.022-3.325,3.388-5.819,3.388   c-0.898,0-1.754-0.18-2.536-0.5l0.929,9.922c0.258,1.091,0.476,2.17,0.661,3.238c4.935,0.277,6.263-4.334,5.989-7.218   C272.791,128.427,272.782,127.177,272.886,125.932z"/>
	<path style="fill:#F9BD91;" d="M181.956,132.193c1.464-2.116,5.372-2.143,7.217-1.496c0.157,2.232,0.657,4.435,1.473,6.534   l5.092,13.09c0.258,1.091,0.546,2.154,0.859,3.19c-4.288,2.458-7.541-1.07-8.588-3.771c-0.45-1.163-1.002-2.283-1.652-3.35   C184.241,142.916,178.287,137.495,181.956,132.193z"/>
	<path style="fill:#FCD2AE;" d="M261.352,109.052c-0.678-0.995-1.468-1.978-2.382-2.865c-1.546-1.503-2.537-3.479-2.88-5.602   c-0.984-6.106-3.994-17.792-12.713-19.475c-7.407-1.43-15.207,2.257-20.033,5.236c-3.134,1.935-6.82,2.807-10.489,2.48   c-5.649-0.503-14.274-0.306-20.257,4.29c-7.062,5.425-4.484,17.273-2.629,23.156c0.642,2.035,0.622,4.228-0.082,6.249   c-0.406,1.165-0.669,2.358-0.831,3.516c-0.526,3.756-0.034,7.58,1.331,11.114l5.072,13.13c4.613,19.51,18.163,30.308,28.648,35.093   c5.473,2.498,11.64,3.099,17.517,1.709c5.877-1.389,11.122-4.689,14.897-9.373c7.232-8.974,14.511-24.697,9.898-44.207   l-1.345-14.008C264.717,115.761,263.468,112.156,261.352,109.052z"/>
	<path style="fill:#F9BD91;" d="M237.214,182.277c-8.326-5.295-19.337-16.694-23.95-36.204l-4.618-13.238   c-1.243-3.563-1.83-7.364-1.631-11.043c0.061-1.134,0.198-2.298,0.447-3.425c0.431-1.957,0.327-4.119-0.278-6.163   c-1.748-5.909-4.378-17.745,0.758-22.714c0.319-0.309,0.654-0.586,0.995-0.848c-5.252-0.035-11.615,0.849-16.337,4.476   c-7.062,5.425-4.484,17.273-2.629,23.156c0.642,2.035,0.622,4.228-0.082,6.249c-0.406,1.165-0.668,2.358-0.831,3.516   c-0.526,3.756-0.034,7.58,1.331,11.114l5.072,13.13c4.613,19.51,18.163,30.308,28.648,35.093c5.473,2.498,11.64,3.099,17.517,1.709   c1.763-0.417,3.459-1.025,5.085-1.771C243.509,185.226,240.257,184.212,237.214,182.277z"/>
	<path style="fill:#474979;" d="M331.354,383.583c0,0-45.777,18.712-95.23,10.024l-29.162,113.48   C222.806,510.306,239.205,512,256,512c0.615,0,1.225-0.019,1.839-0.023l25.521-89.834c0.674-2.371,4.103-2.155,4.474,0.282   l13,85.468c17.162-3.174,33.696-8.134,49.403-14.685L331.354,383.583z"/>
	<path style="fill:#3B3F6D;" d="M246.806,485.073c-14.219,0-25.983-10.494-27.979-24.159l-11.866,46.173   C222.806,510.306,239.205,512,256,512c0.615,0,1.225-0.019,1.839-0.023l10.457-36.81   C263.109,481.227,255.409,485.073,246.806,485.073z"/>
	<path style="fill:#3B3F6D;" d="M343.618,454.787c-3.759,11.208-14.339,19.286-26.812,19.286c-9.418,0-17.755-4.607-22.895-11.686   l6.922,45.506c17.162-3.174,33.696-8.134,49.403-14.685L343.618,454.787z"/>
	<path style="fill:#6393E4;" d="M344.4,148.164c1.855-4.106-0.179-8.923-4.416-10.456l-32.048-11.598   c-3.858-1.396-8.135,0.464-9.745,4.238l-20.202,47.37c-1.765,4.139-5.572,6.788-9.938,7.877c-1.511,0.376-2.538,1.776-2.484,3.351   c0.398,11.478-4.828,17.89-9.096,21.191c-2.971,2.299-6.77,3.198-10.492,2.702c-11.939-1.592-17.851-8.55-20.519-13.195   c-1.287-2.24-4.163-3.073-6.432-1.838l-24.015,13.071c-4.344,2.364-7.868,5.993-10.104,10.405l-28.754,56.741   c-1.824,3.6-0.574,7.997,2.872,10.098l28.689,17.495c3.99,2.433,9.209,0.799,11.099-3.475l12.507-28.279   c0.705-1.595,3.012-1.433,3.503,0.24c16.479,56.104,14.844,103.449,13.557,119.944c-0.279,3.574,2.231,6.783,5.777,7.314   c49.207,7.361,88.204-7.095,101.914-13.216c3.084-1.376,4.687-4.809,3.792-8.066l-32.929-119.81   c-3.222-11.722-2.246-24.202,2.759-35.281L344.4,148.164z"/>
	<path style="fill:#EAA77A;" d="M195.739,150.323l-3.615-9.292c-1.222,1.633-3.165,2.695-5.361,2.695   c-0.972,0-1.894-0.212-2.728-0.584c0.878,1.2,1.744,2.3,2.324,3.25c0.65,1.067,1.202,2.188,1.652,3.35   c1.046,2.701,4.299,6.229,8.587,3.771C196.285,152.476,195.997,151.414,195.739,150.323z"/>
	<path style="fill:#5D80D3;" d="M229.124,256.056c-10.25-5-17.803,17.806-17.803,17.806c0.705-1.595,3.012-1.433,3.503,0.24   c16.479,56.104,14.843,103.449,13.557,119.944c-0.279,3.574,2.231,6.783,5.777,7.314c9.317,1.394,18.265,2.003,26.747,2.037   C262.141,340.4,237.542,260.162,229.124,256.056z"/>
	<path style="fill:#5D80D3;" d="M301.874,169.306c5.655-12.616,12.501-26.761,18.432-38.719l-12.371-4.477   c-3.858-1.396-8.135,0.464-9.745,4.238l-20.202,47.37c-1.765,4.139-5.572,6.788-9.938,7.877   C268.051,185.594,288.874,198.306,301.874,169.306z"/>
</g>















</svg>
